HIERARCHY
ROOT Hips
{
	OFFSET 0.000000 0.000000 0.000000
	CHANNELS 6 Xposition Yposition Zposition Xrotation Yrotation Zrotation
	JOINT Spine
	{
		OFFSET 0.000000 0.053497 0.080245
		CHANNELS 3 Xrotation Yrotation Zrotation
		JOINT Spine1
		{
			OFFSET 0.000000 0.018579 0.105368
			CHANNELS 3 Xrotation Yrotation Zrotation
			JOINT Spine2
			{
				OFFSET 0.000000 0.009325 0.106586
				CHANNELS 3 Xrotation Yrotation Zrotation
				JOINT Spine3
				{
					OFFSET 0.000000 0.000000 0.106993
					CHANNELS 3 Xrotation Yrotation Zrotation
					JOINT Neck
					{
						OFFSET 0.000000 -0.040123 0.280858
						CHANNELS 3 Xrotation Yrotation Zrotation
						JOINT Head
						{
							OFFSET 0.000000 -0.025547 0.144881
							CHANNELS 3 Xrotation Yrotation Zrotation
							End Site
							{
								OFFSET 0.000000 0.000000 0.000000
							}
						}
					}
					JOINT RightShoulder
					{
						OFFSET -0.032541 -0.054235 0.175720
						CHANNELS 3 Xrotation Yrotation Zrotation
						JOINT RightArm
						{
							OFFSET -0.161619 -0.000000 0.000000
							CHANNELS 3 Xrotation Yrotation Zrotation
							JOINT RightForeArm
							{
								OFFSET -0.257104 -0.000000 0.000000
								CHANNELS 3 Xrotation Yrotation Zrotation
								JOINT RightHand
								{
									OFFSET -0.273485 -0.000000 0.000000
									CHANNELS 3 Xrotation Yrotation Zrotation
									JOINT RightHandEnd
									{
										OFFSET -0.070844 -0.000000 0.000000
										CHANNELS 3 Xrotation Yrotation Zrotation
										End Site
										{
											OFFSET 0.000000 0.000000 0.000000
										}
									}
									JOINT RightHandThumb1
									{
										OFFSET -0.028338 -0.047230 -0.018892
										CHANNELS 3 Xrotation Yrotation Zrotation
										End Site
										{
											OFFSET 0.000000 0.000000 0.000000
										}
									}
								}
							}
						}
					}
					JOINT LeftShoulder
					{
						OFFSET 0.032541 -0.054235 0.175720
						CHANNELS 3 Xrotation Yrotation Zrotation
						JOINT LeftArm
						{
							OFFSET 0.161619 0.000000 0.000000
							CHANNELS 3 Xrotation Yrotation Zrotation
							JOINT LeftForeArm
							{
								OFFSET 0.257104 0.000000 0.000000
								CHANNELS 3 Xrotation Yrotation Zrotation
								JOINT LeftHand
								{
									OFFSET 0.273485 0.000000 0.000000
									CHANNELS 3 Xrotation Yrotation Zrotation
									JOINT LeftHandEnd
									{
										OFFSET 0.070844 0.000000 0.000000
										CHANNELS 3 Xrotation Yrotation Zrotation
										End Site
										{
											OFFSET 0.000000 0.000000 0.000000
										}
									}
									JOINT LeftHandThumb1
									{
										OFFSET 0.028338 -0.047230 -0.018892
										CHANNELS 3 Xrotation Yrotation Zrotation
										End Site
										{
											OFFSET 0.000000 0.000000 0.000000
										}
									}
								}
							}
						}
					}
				}
			}
		}
	}
	JOINT RightUpLeg
	{
		OFFSET -0.096537 0.000000 -0.028202
		CHANNELS 3 Xrotation Yrotation Zrotation
		JOINT RightLeg
		{
			OFFSET 0.000000 0.000000 -0.431842
			CHANNELS 3 Xrotation Yrotation Zrotation
			JOINT RightFoot
			{
				OFFSET 0.000000 0.000000 -0.456398
				CHANNELS 3 Xrotation Yrotation Zrotation
				JOINT RightToeBase
				{
					OFFSET 0.000000 -0.128905 -0.046918
					CHANNELS 3 Xrotation Yrotation Zrotation
					End Site
					{
						OFFSET 0.000000 0.000000 0.000000
					}
				}
			}
		}
	}
	JOINT LeftUpLeg
	{
		OFFSET 0.096537 0.000000 -0.028202
		CHANNELS 3 Xrotation Yrotation Zrotation
		JOINT LeftLeg
		{
			OFFSET 0.000000 0.000000 -0.431842
			CHANNELS 3 Xrotation Yrotation Zrotation
			JOINT LeftFoot
			{
				OFFSET 0.000000 0.000000 -0.456398
				CHANNELS 3 Xrotation Yrotation Zrotation
				JOINT LeftToeBase
				{
					OFFSET 0.000000 -0.128905 -0.046918
					CHANNELS 3 Xrotation Yrotation Zrotation
					End Site
					{
						OFFSET 0.000000 0.000000 0.000000
					}
				}
			}
		}
	}
}
MOTION
Frames: 9
Frame Time: 0.033333
0.136713 -0.708563 0.968441 6.280300 -0.328200 174.202800 -1.340900 2.480700 0.742600 -1.727600 0.156700 -0.133100 6.953100 -2.924400 -3.304500 2.985600 0.542500 -0.636500 6.077400 4.368600 -16.141000 -4.633700 -6.578100 -20.067700 10.513500 -14.570600 8.025500 29.023600 -50.259200 29.880000 0.000000 0.000000 28.062000 -8.882900 6.438000 -1.533000 0.000000 0.000000 0.000000 0.000000 0.000000 0.000000 12.163300 12.571200 -7.085600 40.763000 48.383500 -42.459200 0.000000 0.000000 -27.216100 -12.960800 -15.356900 8.080300 0.000000 0.000000 0.000000 0.000000 0.000000 0.000000 10.231000 2.771400 -23.017700 4.664000 0.000000 0.000000 -7.826200 -1.579100 6.515200 -0.097000 0.000000 0.000000 10.175100 -3.167100 15.255800 5.781400 0.000000 0.000000 -12.916700 22.023200 10.111100 13.896400 0.000000 0.000000 
0.136174 -0.708978 0.968477 6.239800 -0.285900 174.350000 -1.349700 2.502300 0.734800 -1.729600 0.168500 -0.131000 6.890000 -2.896000 -3.293300 2.974500 0.545600 -0.638600 6.068600 4.380000 -16.135000 -4.631600 -6.607200 -20.064800 10.498400 -14.587100 8.059000 29.491500 -50.172100 30.353900 0.000000 0.000000 27.608200 -8.993200 6.238600 -1.607500 0.000000 0.000000 0.000000 0.000000 0.000000 0.000000 12.118600 12.633400 -7.172900 40.765000 48.358300 -42.540100 0.000000 0.000000 -27.470300 -13.038600 -15.339800 7.980400 0.000000 0.000000 0.000000 0.000000 0.000000 0.000000 10.172800 2.816400 -23.121600 4.675200 0.000000 0.000000 -7.817400 -1.578800 6.478700 -0.088400 0.000000 0.000000 10.094300 -3.123600 15.136000 5.745800 0.000000 0.000000 -12.863700 21.988400 10.049600 13.920900 0.000000 0.000000 
0.135288 -0.709643 0.968515 6.176500 -0.222900 174.573800 -1.358500 2.533500 0.724300 -1.729700 0.184600 -0.125900 6.790400 -2.845500 -3.267800 2.953300 0.550400 -0.641300 6.037700 4.407100 -16.123500 -4.613400 -6.657100 -20.062300 10.510400 -14.598000 8.104000 30.359800 -49.998500 31.230100 0.000000 0.000000 26.757700 -9.190200 5.878500 -1.774300 0.000000 0.000000 0.000000 0.000000 0.000000 0.000000 12.068400 12.718400 -7.302600 40.826300 48.297600 -42.707500 0.000000 0.000000 -27.811200 -13.122300 -15.296200 7.817100 0.000000 0.000000 0.000000 0.000000 0.000000 0.000000 10.078000 2.887400 -23.244900 4.695900 0.000000 0.000000 -7.800500 -1.581000 6.391000 -0.067000 0.000000 0.000000 9.965500 -3.055000 14.981300 5.696200 0.000000 0.000000 -12.762700 21.927800 9.915100 13.925800 0.000000 0.000000 
0.134295 -0.710347 0.968550 6.119100 -0.163500 174.781200 -1.359200 2.560400 0.717900 -1.725800 0.198000 -0.122000 6.702900 -2.786900 -3.231000 2.932400 0.555600 -0.641300 5.967800 4.445000 -16.106800 -4.582400 -6.714900 -20.059900 10.537200 -14.591300 8.160700 31.427900 -49.779900 32.246900 0.000000 0.000000 25.722100 -9.407700 5.451400 -2.000400 0.000000 0.000000 0.000000 0.000000 0.000000 0.000000 12.037300 12.787100 -7.422900 40.977600 48.201100 -42.922500 0.000000 0.000000 -28.058100 -13.154400 -15.218700 7.640200 0.000000 0.000000 0.000000 0.000000 0.000000 0.000000 9.975700 2.967200 -23.326200 4.733800 0.000000 0.000000 -7.782300 -1.585900 6.278000 -0.037400 0.000000 0.000000 9.840700 -2.979900 14.877300 5.652700 0.000000 0.000000 -12.645700 21.866900 9.741400 13.910300 0.000000 0.000000 
0.133292 -0.710989 0.968591 6.087200 -0.111700 174.929800 -1.342400 2.583900 0.713100 -1.716900 0.204000 -0.118300 6.650200 -2.726700 -3.187900 2.917500 0.561300 -0.644000 5.862200 4.478400 -16.077500 -4.556400 -6.761700 -20.051200 10.568900 -14.563400 8.242200 32.476600 -49.587900 33.169700 0.000000 0.000000 24.689300 -9.580700 4.992700 -2.249400 0.000000 0.000000 0.000000 0.000000 0.000000 0.000000 12.027600 12.829700 -7.506200 41.181100 48.088000 -43.120900 0.000000 0.000000 -28.138000 -13.149100 -15.110800 7.480800 0.000000 0.000000 0.000000 0.000000 0.000000 0.000000 9.884900 3.057100 -23.362700 4.794200 0.000000 0.000000 -7.773500 -1.590700 6.174100 -0.011100 0.000000 0.000000 9.750700 -2.898300 14.812300 5.620500 0.000000 0.000000 -12.553300 21.822100 9.604900 13.901400 0.000000 0.000000 
0.132197 -0.711660 0.968639 6.061000 -0.051300 175.038200 -1.318200 2.607400 0.704500 -1.707000 0.212700 -0.113100 6.617700 -2.660700 -3.139100 2.904300 0.567500 -0.647900 5.748200 4.501400 -16.031200 -4.540300 -6.788100 -20.030400 10.613300 -14.528400 8.315800 33.463900 -49.424900 34.015800 0.000000 0.000000 23.685700 -9.728100 4.474600 -2.510500 0.000000 0.000000 0.000000 0.000000 0.000000 0.000000 12.035400 12.863200 -7.567600 41.364500 47.987700 -43.260700 0.000000 0.000000 -28.084200 -13.185700 -14.959600 7.360700 0.000000 0.000000 0.000000 0.000000 0.000000 0.000000 9.774600 3.177800 -23.399600 4.892500 0.000000 0.000000 -7.785100 -1.596300 6.106200 0.006300 0.000000 0.000000 9.663800 -2.793100 14.697400 5.600000 0.000000 0.000000 -12.505800 21.772400 9.569900 13.905400 0.000000 0.000000 
0.130988 -0.712363 0.968685 6.028300 0.018000 175.123000 -1.294400 2.633300 0.692600 -1.694700 0.230500 -0.109100 6.582900 -2.598400 -3.088800 2.890300 0.572200 -0.650500 5.656300 4.525000 -15.965100 -4.527000 -6.791000 -19.992900 10.680800 -14.494000 8.342600 34.397900 -49.268300 34.836300 0.000000 0.000000 22.724500 -9.869200 3.913100 -2.786700 0.000000 0.000000 0.000000 0.000000 0.000000 0.000000 12.051100 12.890600 -7.608600 41.537600 47.917400 -43.367400 0.000000 0.000000 -27.902900 -13.282900 -14.763200 7.299100 0.000000 0.000000 0.000000 0.000000 0.000000 0.000000 9.637700 3.326800 -23.447700 5.021800 0.000000 0.000000 -7.808300 -1.607500 6.071400 0.015800 0.000000 0.000000 9.564300 -2.665800 14.522200 5.590000 0.000000 0.000000 -12.490600 21.694200 9.617900 13.899200 0.000000 0.000000 
0.129758 -0.712965 0.968715 5.997100 0.074400 175.179400 -1.273900 2.662600 0.681100 -1.686700 0.248400 -0.105300 6.559000 -2.556200 -3.056600 2.877900 0.572000 -0.653100 5.598800 4.560400 -15.879900 -4.516000 -6.773900 -19.933300 10.769000 -14.454700 8.325800 35.245000 -49.116400 35.587500 0.000000 0.000000 21.880800 -9.973300 3.398100 -3.062200 0.000000 0.000000 0.000000 0.000000 0.000000 0.000000 12.082200 12.902100 -7.606600 41.747500 47.856300 -43.494800 0.000000 0.000000 -27.545900 -13.350900 -14.507700 7.305800 0.000000 0.000000 0.000000 0.000000 0.000000 0.000000 9.511900 3.467200 -23.476700 5.135300 0.000000 0.000000 -7.813400 -1.625500 6.044200 0.018500 0.000000 0.000000 9.479100 -2.543500 14.384600 5.576900 0.000000 0.000000 -12.475200 21.605700 9.658800 13.885500 0.000000 0.000000 
0.128537 -0.713440 0.968753 5.955700 0.116100 175.204300 -1.278800 2.699000 0.673500 -1.688200 0.263300 -0.104500 6.564600 -2.540900 -3.048500 2.872700 0.570000 -0.656900 5.564000 4.608800 -15.787100 -4.508900 -6.748300 -19.855100 10.845200 -14.413500 8.294600 35.991900 -48.972100 36.213900 0.000000 0.000000 21.210500 -10.035400 2.978000 -3.299200 0.000000 0.000000 0.000000 0.000000 0.000000 0.000000 12.114200 12.911400 -7.568000 41.998800 47.776500 -43.626200 0.000000 0.000000 -27.016900 -13.340000 -14.168100 7.387200 0.000000 0.000000 0.000000 0.000000 0.000000 0.000000 9.399400 3.588700 -23.490700 5.204500 0.000000 0.000000 -7.791400 -1.650300 6.027900 0.020200 0.000000 0.000000 9.413800 -2.430300 14.344100 5.531900 0.000000 0.000000 -12.433500 21.537700 9.639000 13.892600 0.000000 0.000000 
